PathFileType	4	(X/Y/Z)	/Users/itak/Documents/Research/Walk-IL/dataset/trc/00207_00008.trc
DataRate	CameraRate	NumFrames	NumMarkers	Units	OrigDataRate	OrigDataStartFrame	OrigNumFrames
100.000000	100.000000	4	53	mm	100.000000	0	514
Frame#	Time	RPSI			LPSI			L3			STRN			T10			C7			CLAV			RBAK			LBAK			LSHO			LUPA			LAEL			LAOL			LWTS			LWPS			LFRA			LIFD			LHPS			LHTS			RSHO			RUPA			RAEL			RAOL			RWTS			RWPS			RFRA			RIFD			RHTS			RHPS			RBHD			LFHD			RFHD			LBHD			LHIP			RHIP			RASI			LASI			LKNE			LTHI			LANK			LTIP			LTOE			LMT1			LMT5			LHEE			RKNE			RTHI			RANK			RTIP			RTOE			RMT1			RMT5			RHEE			
		X1	Y1	Z1	X2	Y2	Z2	X3	Y3	Z3	X4	Y4	Z4	X5	Y5	Z5	X6	Y6	Z6	X7	Y7	Z7	X8	Y8	Z8	X9	Y9	Z9	X10	Y10	Z10	X11	Y11	Z11	X12	Y12	Z12	X13	Y13	Z13	X14	Y14	Z14	X15	Y15	Z15	X16	Y16	Z16	X17	Y17	Z17	X18	Y18	Z18	X19	Y19	Z19	X20	Y20	Z20	X21	Y21	Z21	X22	Y22	Z22	X23	Y23	Z23	X24	Y24	Z24	X25	Y25	Z25	X26	Y26	Z26	X27	Y27	Z27	X28	Y28	Z28	X29	Y29	Z29	X30	Y30	Z30	X31	Y31	Z31	X32	Y32	Z32	X33	Y33	Z33	X34	Y34	Z34	X35	Y35	Z35	X36	Y36	Z36	X37	Y37	Z37	X38	Y38	Z38	X39	Y39	Z39	X40	Y40	Z40	X41	Y41	Z41	X42	Y42	Z42	X43	Y43	Z43	X44	Y44	Z44	X45	Y45	Z45	X46	Y46	Z46	X47	Y47	Z47	X48	Y48	Z48	X49	Y49	Z49	X50	Y50	Z50	X51	Y51	Z51	X52	Y52	Z52	X53	Y53	Z53	

1	0	-1620.780639648438	1057.94921875	-589.7728271484375	-1609.140502929688	1055.412719726562	-713.9007568359375	-1613.351806640625	1093.296142578125	-650.347412109375	-1357.006958007812	1301.864990234375	-637.48095703125	-1647.456787109375	1247.364990234375	-663.4470825195312	-1584.078002929688	1517.367065429688	-674.1226196289062	-1383.977294921875	1415.065673828125	-651.390625	-1658.041137695312	1344.039184570312	-568.1500244140625	-1581.931640625	1490.7841796875	-775.5674438476562	-1497.697631835938	1477.420166015625	-846.7409057617188	-1520.89208984375	1343.398315429688	-919.7891845703125	-1499.942016601562	1125.535034179688	-934.3097534179688	-1555.727905273438	1110.2392578125	-866.9276123046875	-1387.096435546875	898.1486206054688	-886.8511962890625	-1461.256469726562	874.2828369140625	-935.555419921875	-1480.925537109375	1015.523254394531	-944.9212036132812	-1365.045166015625	718.6005249023438	-853.3844604492188	-1437.7783203125	805.9737548828125	-928.8604736328125	-1369.6533203125	819.8018188476562	-904.6476440429688	-1537.441284179688	1500.578369140625	-488.0003967285156	-1561.985473632812	1435.441284179688	-419.5338745117188	-1576.406127929688	1146.674438476562	-361.7281494140625	-1571.548095703125	1137.859130859375	-459.8345642089844	-1427.151733398438	925.2140502929688	-364.8688049316406	-1503.8505859375	905.7597045898438	-323.6414794921875	-1550.138793945312	1075.762939453125	-339.5447387695312	-1402.603393554688	733.5010986328125	-379.262939453125	-1397.772705078125	833.8634033203125	-353.3594665527344	-1471.59765625	824.4994506835938	-321.1877746582031	-1546.0478515625	1680.380981445312	-602.6904907226562	-1374.3046875	1735.703125	-724.828857421875	-1383.437377929688	1743.413818359375	-596.1868286132812	-1544.384643554688	1679.117797851562	-740.5205688476562	-1495.981689453125	990.19580078125	-820.1176147460938	-1477.039428710938	1017.960021972656	-451.5469665527344	-1388.320190429688	1044.18212890625	-500.10546875	-1375.552001953125	1026.067016601562	-757.1505737304688	-1496.099487304688	493.4627380371094	-770.2954711914062	-1484.146606445312	634.7515869140625	-801.9871826171875	-1590.062255859375	40.1952018737793	-761.7583618164062	-1539.414916992188	272.9876403808594	-779.2445678710938	-1368.205688476562	39.3868522644043	-753.297119140625	-1415.0947265625	39.94015121459961	-701.4634399414062	-1485.063354492188	33.00037384033203	-808.5316162109375	-1634.932250976562	37.60595321655273	-688.7876586914062	-1480.3603515625	513.990234375	-472.8009948730469	-1432.58837890625	781.9551391601562	-437.9974975585938	-1565.157836914062	36.3372688293457	-480.6593933105469	-1471.923217773438	397.6662902832031	-492.1445007324219	-1341.956298828125	40.24296951293945	-516.1978759765625	-1397.903198242188	37.71541976928711	-560.5891723632812	-1452.068115234375	37.85153198242188	-446.5006103515625	-1615.358520507812	31.27125549316406	-547.7150268554688	
2	0.01	-1620.859008789062	1057.950439453125	-589.777587890625	-1609.159912109375	1055.432006835938	-713.90283203125	-1613.436889648438	1093.3251953125	-650.35693359375	-1357.001953125	1301.84326171875	-637.3211669921875	-1647.455444335938	1247.418334960938	-663.4745483398438	-1583.913452148438	1517.398803710938	-674.0930786132812	-1383.86572265625	1415.056762695312	-651.2069091796875	-1658.060180664062	1344.1064453125	-568.1649780273438	-1581.74365234375	1490.818969726562	-775.5460815429688	-1497.509155273438	1477.445556640625	-846.666748046875	-1520.705322265625	1343.438354492188	-919.7535400390625	-1499.92236328125	1125.574096679688	-934.2522583007812	-1555.725952148438	1110.319580078125	-866.8934326171875	-1387.530395507812	897.9510498046875	-886.8367919921875	-1461.613037109375	874.2666625976562	-935.587158203125	-1481.032470703125	1015.549499511719	-944.8873291015625	-1365.285888671875	718.4373168945312	-853.2037353515625	-1438.252075195312	805.9063110351562	-928.9107055664062	-1370.042724609375	819.6224975585938	-904.6279907226562	-1537.446899414062	1500.5947265625	-487.9591064453125	-1562.030395507812	1435.473266601562	-419.4955139160156	-1576.50537109375	1146.691040039062	-361.6720886230469	-1571.608764648438	1137.889526367188	-459.7654418945312	-1427.2373046875	925.2521362304688	-364.8014831542969	-1503.915649414062	905.7845458984375	-323.5785217285156	-1550.211669921875	1075.78173828125	-339.4752197265625	-1402.634521484375	733.5477905273438	-379.2299499511719	-1397.853881835938	833.9236450195312	-353.3011779785156	-1471.646728515625	824.51513671875	-321.1267395019531	-1545.940673828125	1680.40966796875	-602.6561279296875	-1374.097534179688	1735.64794921875	-724.6610107421875	-1383.322998046875	1743.343872070312	-596.02783203125	-1544.115356445312	1679.140380859375	-740.4473266601562	-1495.954467773438	990.2002563476562	-820.0675659179688	-1477.291870117188	1017.908142089844	-451.4277954101562	-1388.438598632812	1044.170166015625	-500.0188903808594	-1375.478271484375	1026.064208984375	-757.0362548828125	-1496.067749023438	493.4674377441406	-770.2236328125	-1484.105590820312	634.7437744140625	-801.9110107421875	-1590.055053710938	40.21039581298828	-761.7384643554688	-1539.359497070312	272.9939270019531	-779.1837158203125	-1368.203247070312	39.38673400878906	-753.2930297851562	-1415.089111328125	39.9280891418457	-701.4512939453125	-1485.066040039062	33.01632308959961	-808.5192260742188	-1634.92822265625	37.60920715332031	-688.7664794921875	-1480.450073242188	513.9999389648438	-472.7466735839844	-1432.70751953125	781.9689331054688	-437.9225463867188	-1565.166137695312	36.32956314086914	-480.6487426757812	-1471.992919921875	397.6786499023438	-492.0914306640625	-1341.961669921875	40.24723052978516	-516.1920776367188	-1397.908935546875	37.72446823120117	-560.5830078125	-1452.068603515625	37.84601974487305	-446.4893798828125	-1615.359130859375	31.26263236999512	-547.7158813476562	
3	0.02	-1620.954956054688	1057.952270507812	-589.7842407226562	-1609.181518554688	1055.4560546875	-713.9065551757812	-1613.5390625	1093.359008789062	-650.3698120117188	-1356.989379882812	1301.814453125	-637.1263427734375	-1647.451904296875	1247.484130859375	-663.5098876953125	-1583.709106445312	1517.439697265625	-674.0565185546875	-1383.7333984375	1415.044799804688	-650.9876098632812	-1658.079833984375	1344.18798828125	-568.1827392578125	-1581.508422851562	1490.866333007812	-775.516357421875	-1497.266967773438	1477.47265625	-846.572021484375	-1520.47314453125	1343.48828125	-919.7088012695312	-1499.90625	1125.621337890625	-934.1764526367188	-1555.724975585938	1110.420776367188	-866.8455200195312	-1388.065551757812	897.7103881835938	-886.8111572265625	-1462.063720703125	874.2460327148438	-935.6168823242188	-1481.17626953125	1015.580505371094	-944.8382568359375	-1365.604370117188	718.2437133789062	-852.971923828125	-1438.847290039062	805.8231811523438	-928.9619140625	-1370.534790039062	819.3990478515625	-904.5924682617188	-1537.448364257812	1500.614013671875	-487.9076538085938	-1562.083984375	1435.512329101562	-419.4485778808594	-1576.622924804688	1146.711791992188	-361.5997009277344	-1571.684814453125	1137.92529296875	-459.6787719726562	-1427.342895507812	925.29833984375	-364.7224426269531	-1503.9951171875	905.8128662109375	-323.5023498535156	-1550.304931640625	1075.803833007812	-339.3906860351562	-1402.678466796875	733.6039428710938	-379.1963195800781	-1397.95068359375	833.9931030273438	-353.2315063476562	-1471.706176757812	824.5326538085938	-321.0544738769531	-1545.791625976562	1680.446411132812	-602.6068725585938	-1373.824340820312	1735.578002929688	-724.446044921875	-1383.15625	1743.254028320312	-595.8230590820312	-1543.772094726562	1679.171630859375	-740.3511352539062	-1495.916381835938	990.204833984375	-820.006103515625	-1477.524169921875	1017.883911132812	-451.3165893554688	-1388.584716796875	1044.15625	-499.9121704101562	-1375.382934570312	1026.060546875	-756.8959350585938	-1496.027954101562	493.4723510742188	-770.1353759765625	-1484.051635742188	634.7329711914062	-801.81494140625	-1590.046264648438	40.22889709472656	-761.7145385742188	-1539.292236328125	273.0011291503906	-779.1106567382812	-1368.199951171875	39.38663101196289	-753.287841796875	-1415.081787109375	39.91263198852539	-701.4360961914062	-1485.069458007812	33.03534698486328	-808.5036010742188	-1634.923095703125	37.61373901367188	-688.7408447265625	-1480.561157226562	514.01318359375	-472.6805419921875	-1432.850830078125	781.9882202148438	-437.8335571289062	-1565.177368164062	36.32078552246094	-480.6360168457031	-1472.080078125	397.695068359375	-492.0274047851562	-1341.968505859375	40.25270080566406	-516.185302734375	-1397.916015625	37.73478317260742	-560.5753784179688	-1452.0693359375	37.84016418457031	-446.476318359375	-1615.359985351562	31.25199127197266	-547.717041015625	
4	0.03	-1621.063110351562	1057.954833984375	-589.79296875	-1609.203247070312	1055.483764648438	-713.912353515625	-1613.650390625	1093.394897460938	-650.3855590820312	-1356.96630859375	1301.779174804688	-636.9078369140625	-1647.445556640625	1247.558959960938	-663.5519409179688	-1583.47509765625	1517.48876953125	-674.0145874023438	-1383.58984375	1415.029541015625	-650.7484741210938	-1658.096923828125	1344.278930664062	-568.2019653320312	-1581.23681640625	1490.926147460938	-775.4783935546875	-1496.978515625	1477.498168945312	-846.4600219726562	-1520.205932617188	1343.5458984375	-919.65673828125	-1499.8984375	1125.673461914062	-934.0835571289062	-1555.725708007812	1110.5390625	-866.7832641601562	-1388.673095703125	897.4413452148438	-886.7720336914062	-1462.5908203125	874.2217407226562	-935.63818359375	-1481.355834960938	1015.614135742188	-944.7730102539062	-1366.007934570312	718.0313720703125	-852.7024536132812	-1439.53955078125	805.7289428710938	-929.0057983398438	-1371.110595703125	819.1417236328125	-904.537353515625	-1537.442749023438	1500.634887695312	-487.84814453125	-1562.141967773438	1435.556274414062	-419.3955078125	-1576.750854492188	1146.735473632812	-361.5131225585938	-1571.773193359375	1137.96337890625	-459.5783996582031	-1427.463012695312	925.3495483398438	-364.6375122070312	-1504.0849609375	905.8418579101562	-323.4176635742188	-1550.416015625	1075.827514648438	-339.2960815429688	-1402.736083984375	733.6655883789062	-379.16650390625	-1398.056762695312	834.06591796875	-353.1551513671875	-1471.773803710938	824.55029296875	-320.9769287109375	-1545.599365234375	1680.489624023438	-602.5413208007812	-1373.489501953125	1735.49609375	-724.1907348632812	-1382.933227539062	1743.147338867188	-595.5785522460938	-1543.367919921875	1679.2119140625	-740.2347412109375	-1495.8671875	990.2092895507812	-819.9365234375	-1477.702026367188	1017.900146484375	-451.2283935546875	-1388.750732421875	1044.1416015625	-499.7904663085938	-1375.26953125	1026.055786132812	-756.7369995117188	-1495.982299804688	493.4766845703125	-770.0355834960938	-1483.986206054688	634.7193603515625	-801.7032470703125	-1590.036376953125	40.24951553344727	-761.6881103515625	-1539.217407226562	273.0086669921875	-779.0303955078125	-1368.196044921875	39.38661193847656	-753.2818603515625	-1415.073120117188	39.89443588256836	-701.4185791015625	-1485.073608398438	33.05612182617188	-808.485595703125	-1634.917358398438	37.61956787109375	-688.7125244140625	-1480.688354492188	514.02978515625	-472.6067199707031	-1433.010009765625	782.0120849609375	-437.7365112304688	-1565.191284179688	36.31175231933594	-480.6222229003906	-1472.180908203125	397.7152404785156	-491.9565124511719	-1341.976440429688	40.25912475585938	-516.1779174804688	-1397.923828125	37.74541854858398	-560.5668334960938	-1452.0703125	37.8345832824707	-446.4625244140625	-1615.360961914062	31.23990058898926	-547.718505859375	
